# xmcd
#
# Track frame offsets: 
#        150
#        12864
#        29458
#        46046
#        67977
#        91678
#        105204
#        123270
#        127323
#        143798
#        157008
#        178690
#        195314
#        215989
#
# Disc length: 2943 seconds
#
# Revision: 0
# Processed by: cddbd v1.5.2PL0 Copyright (c) Steve Scherf et al.
# Submitted via: ExactAudioCopy v0.95b4
#
DISCID=ba0b7d0e
DTITLE=Hungry Mob - 3 Days of Darkness
DYEAR=2004
DGENRE=Rap
TTITLE0=It's Here
TTITLE1=Blazin' Trails
TTITLE2=Urban Reality
TTITLE3=To the People
TTITLE4=Livin' Givin'
TTITLE5=Crypto-Fascism (3 Minutes of Darkness)
TTITLE6=All Points
TTITLE7=Hello Party People
TTITLE8=Bubblin'
TTITLE9=The Catalyst
TTITLE10=Only Way to Hide
TTITLE11=Micapella
TTITLE12=Born With All I Need
TTITLE13=Keep Shining (Inner space Mix)
EXTD=
EXTT0=
EXTT1=
EXTT2=
EXTT3=
EXTT4=
EXTT5=
EXTT6=
EXTT7=
EXTT8=
EXTT9=
EXTT10=
EXTT11=
EXTT12=
EXTT13=
PLAYORDER=
